<svg xmlns="http://www.w3.org/2000/svg" xmlns:xlink="http://www.w3.org/1999/xlink" viewBox="0,0,256,256" width="48px" height="48px" fill-rule="nonzero"><g fill="#ffffff" fill-rule="nonzero" stroke="none" stroke-width="1" stroke-linecap="butt" stroke-linejoin="miter" stroke-miterlimit="10" stroke-dasharray="" stroke-dashoffset="0" font-family="none" font-weight="none" font-size="none" text-anchor="none" style="mix-blend-mode: normal"><g transform="scale(5.33333,5.33333)"><path d="M8.5,5c-1.36359,0 -2.5,1.13641 -2.5,2.5v6c0,1.17017 0.90084,2.03005 2,2.29102v20.70898c0,3.57194 2.92806,6.5 6.5,6.5h19c3.57194,0 6.5,-2.92806 6.5,-6.5v-20.70898c1.09916,-0.26097 2,-1.12085 2,-2.29102v-6c0,-1.36359 -1.13641,-2.5 -2.5,-2.5zM9,8h30v5h-30zM11,16h26v20.5c0,1.95006 -1.54994,3.5 -3.5,3.5h-19c-1.95006,0 -3.5,-1.54994 -3.5,-3.5zM19.5,22c-0.54095,-0.00765 -1.04412,0.27656 -1.31683,0.74381c-0.27271,0.46725 -0.27271,1.04514 0,1.51238c0.27271,0.46725 0.77588,0.75146 1.31683,0.74381h9c0.54095,0.00765 1.04412,-0.27656 1.31683,-0.74381c0.27271,-0.46725 0.27271,-1.04514 0,-1.51238c-0.27271,-0.46725 -0.77588,-0.75146 -1.31683,-0.74381z"></path></g></g></svg>